# xmcd
#
# Track frame offsets:
#	150
#	14130
#	27931
#	43529
#	58340
#	74189
#	88547
#	105738
#	121029
#	138059
#	152837
#	164199
#	179860
#	194697
#	213264
#
# Disc length: 3071 seconds
#
# Revision: 0
# Processed by: cddbd v1.5.2PL0 Copyright (c) Steve Scherf et al.
# Submitted via: EasyCDDAExtractor 16.0.8.2
#
DISCID=e70bfd0f
DTITLE=Συλλογικός δίσκος - Κάνε μου τέτοια 3
DYEAR=2014
DGENRE=Τσιφτετέλια
TTITLE0=Βιτάλη Ελένη - Μιά γυναίκα μπορεί[Χ.Νικολόπουλος-Β.Παπαδ)λος/Β.Ξύδης]
TTITLE1=Αγγελόπουλος Μανώλης - Τη βαρέθηκε η ψυχή μου [Αντ. Βαρδής-Αντρέας Σπυ
TTITLE1=ρόπουλος]
TTITLE2=Παπαδοπούλου Πίτσα - Γκρέμισ' τα όλα [Ηλ. Σούκας-Σπ. Κεφαλόπουλος]
TTITLE3=Βοσκόπουλος Τόλης - Μαύρα μάτια [Τ. Βοσκόπουλος-Μάρω Μπιζάνη]
TTITLE4=Παπαδοπούλου Πίτσα - Με τελείωσες [Γιάννης Καραλής]
TTITLE5=Σφακιανάκης Νότης - Παπαρούνα [Σόφη Παππά]
TTITLE6=Βιτάλη Ελένη - Ο Μουσταφάς [Αντ. Πλωμαρίτης]
TTITLE7=Γαβαλάς Πάνος - Ο μαχαραγιάς [Σ. Τζουανάκος-Ν. Γκούμας]
TTITLE8=Διονυσίου Στράτος - Ο Σαλονικιός [Χ.Νικολόπουλος-Λ.Παπαδόπουλος]
TTITLE9=Βιτάλη Ελένη-χορωδία - Τι τα θέλεις τα λεφτά [Γ. Παπαϊωάννου-Β.Παπαδόπ
TTITLE9=ουλος]
TTITLE10=Αντύπας - Για τα λεφτά τα κάνεις όλα [Δημ. Μηλιός-Γ. Λεκάκης]
TTITLE11=Κούκα Κατερίνα - Ρίξε στο κορμί μου σπίρτο [Γ. Σπανός-Τασ. Θωμαΐδου]
TTITLE12=Αντύπας - Απαγορεύεται να σ' αγαπώ [Αντύπας-Τάκης Κωλέττης]
TTITLE13=Σφακιανάκης Νότης - Είσαι ένα πιστόλι [Αλ. Χρυσοβέργης-Σπ. Γιατράς]
TTITLE14=Βοσκόπουλος Τόλης - Γαλανομάτα μάγισσα [Στ. Ζαφειρίου-Σόφη Παππά]
EXTD=
EXTT0=
EXTT1=
EXTT2=
EXTT3=
EXTT4=
EXTT5=
EXTT6=
EXTT7=
EXTT8=
EXTT9=
EXTT10=
EXTT11=
EXTT12=
EXTT13=
EXTT14=
PLAYORDER=
